<svg width="60" height="60" viewBox="0 0 60 60" fill="none" xmlns="http://www.w3.org/2000/svg">
<rect width="60" height="60" rx="30" fill="white" fill-opacity="0.07"/>
<path d="M30 15.72C24.7388 15.72 20.48 19.9788 20.48 25.24C20.48 29.5975 22.7613 34.2525 25.0022 37.8638C27.2432 41.4751 29.4873 44.0475 29.4873 44.0475C29.5515 44.1211 29.6309 44.18 29.7199 44.2202C29.8089 44.2604 29.9055 44.2809 30.0032 44.2804C30.1009 44.2799 30.1973 44.2584 30.2859 44.2173C30.3745 44.1762 30.4532 44.1165 30.5166 44.0422C30.5166 44.0422 32.7593 41.4206 34.999 37.7854C37.2387 34.1502 39.52 29.5017 39.52 25.24C39.52 19.9788 35.2612 15.72 30 15.72ZM30 17.08C34.5308 17.08 38.16 20.7092 38.16 25.24C38.16 29.0023 36.0212 33.5334 33.8409 37.0722C32.0709 39.9452 30.5988 41.7788 29.996 42.5122C29.39 41.7879 27.9229 39.9913 26.1577 37.1466C23.9786 33.6349 21.84 29.1104 21.84 25.24C21.84 20.7092 25.4692 17.08 30 17.08ZM30 20.48C27.3851 20.48 25.24 22.6251 25.24 25.24C25.24 27.8549 27.3851 30 30 30C32.6149 30 34.76 27.8549 34.76 25.24C34.76 22.6251 32.6149 20.48 30 20.48ZM30 21.84C31.8731 21.84 33.4 23.3669 33.4 25.24C33.4 27.1131 31.8731 28.64 30 28.64C28.1269 28.64 26.6 27.1131 26.6 25.24C26.6 23.3669 28.1269 21.84 30 21.84Z" fill="#606571"/>
</svg>
