<svg width="60" height="60" viewBox="0 0 60 60" fill="none" xmlns="http://www.w3.org/2000/svg">
<rect width="60" height="60" rx="30" fill="white" fill-opacity="0.07"/>
<path d="M31.693 18.1781C31.5458 18.1894 31.4008 18.2098 31.258 18.2506L21.0355 21.1506C19.8869 21.4769 19.2049 22.6844 19.5312 23.8331L24.3162 40.6531C24.3252 40.7098 24.3433 40.7641 24.3705 40.8162L25.0593 43.2631C25.3855 44.4118 26.5931 45.0756 27.7418 44.7494L37.9643 41.8494C39.113 41.5231 39.7949 40.3155 39.4687 39.1669L38.798 36.8106C38.8071 36.6747 38.7686 36.541 38.6893 36.43L33.9405 19.7369C33.6958 18.8759 32.9686 18.2846 32.128 18.1781C31.9876 18.16 31.8403 18.1668 31.693 18.1781ZM31.7837 19.32C32.2572 19.2837 32.699 19.5873 32.8349 20.0631L37.4568 36.3756L25.2768 39.8194L20.6549 23.5069C20.5008 22.9609 20.8158 22.4103 21.3618 22.2562L31.5843 19.3562C31.6523 19.3359 31.7157 19.3245 31.7837 19.32ZM37.1487 23.1806C36.981 23.2078 36.8337 23.3098 36.7454 23.457C36.6593 23.602 36.6389 23.781 36.6955 23.9419L39.5955 34.1644C39.6862 34.4748 40.0101 34.6537 40.3205 34.5631C40.6309 34.4725 40.8099 34.1485 40.7193 33.8381L37.8193 23.6156C37.7536 23.3596 37.5225 23.1806 37.2574 23.1806C37.2393 23.1806 37.2212 23.1806 37.203 23.1806C37.1849 23.1806 37.1668 23.1806 37.1487 23.1806ZM40.4293 25.0112C40.2616 25.0384 40.1144 25.1404 40.026 25.2877C39.9399 25.4327 39.9195 25.6116 39.9762 25.7725L41.4262 30.8837C41.5168 31.1941 41.8408 31.3731 42.1512 31.2825C42.4615 31.1919 42.6405 30.8679 42.5499 30.5575L41.0999 25.4462C41.0342 25.1902 40.8031 25.0112 40.538 25.0112C40.5199 25.0112 40.5018 25.0112 40.4837 25.0112C40.4655 25.0112 40.4474 25.0112 40.4293 25.0112ZM18.788 28.4006C18.7699 28.4052 18.7518 28.4119 18.7337 28.4187C18.5705 28.4482 18.4255 28.5456 18.3394 28.6884C18.2533 28.8311 18.2307 29.0033 18.2805 29.1619L21.1805 39.3844C21.2712 39.6948 21.5951 39.8737 21.9055 39.7831C22.2159 39.6925 22.3949 39.3685 22.3043 39.0581L19.4043 28.8356C19.3386 28.5796 19.1075 28.4006 18.8424 28.4006C18.8243 28.4006 18.8062 28.4006 18.788 28.4006ZM16.9574 31.6812C16.9393 31.6858 16.9212 31.6926 16.903 31.6994C16.7399 31.7288 16.5949 31.8262 16.5088 31.969C16.4227 32.1117 16.4001 32.2839 16.4499 32.4425L17.8999 37.5537C17.9905 37.8641 18.3145 38.0431 18.6249 37.9525C18.9353 37.8619 19.1143 37.5379 19.0237 37.2275L17.5737 32.1162C17.508 31.8602 17.2769 31.6812 17.0118 31.6812C16.9937 31.6812 16.9755 31.6812 16.9574 31.6812ZM37.783 37.4994L38.3449 39.4931C38.499 40.0391 38.184 40.5897 37.638 40.7437L27.4155 43.6437C26.8695 43.7978 26.319 43.4829 26.1649 42.9369L25.603 40.9431L37.783 37.4994ZM32.0555 39.91C32.0034 39.9145 31.9445 39.9123 31.8924 39.9281C31.4687 40.0482 31.2286 40.5013 31.3487 40.925C31.4687 41.3487 31.9037 41.5888 32.3274 41.4687C32.7511 41.3487 32.9912 40.9137 32.8712 40.49C32.7669 40.1184 32.4248 39.8828 32.0555 39.91Z" fill="#606571"/>
</svg>
