<svg width="158" height="41" viewBox="0 0 158 41" fill="none" xmlns="http://www.w3.org/2000/svg">
<rect width="158" height="41" fill="url(#paint0_linear_7614_3)" fill-opacity="0.24"/>
<path d="M14.9 12.9V17.84C14.8986 17.9407 14.9172 18.0407 14.9547 18.1341C14.9923 18.2276 15.048 18.3126 15.1187 18.3844C15.1895 18.4561 15.2737 18.513 15.3666 18.5519C15.4595 18.5908 15.5593 18.6108 15.66 18.6108C15.7607 18.6108 15.8604 18.5908 15.9533 18.5519C16.0462 18.513 16.1305 18.4561 16.2012 18.3844C16.2719 18.3126 16.3277 18.2276 16.3652 18.1341C16.4028 18.0407 16.4214 17.9407 16.42 17.84V15.4947L20.6326 19.7073C20.7027 19.7803 20.7865 19.8385 20.8794 19.8786C20.9722 19.9187 21.0721 19.9399 21.1732 19.941C21.2743 19.942 21.3746 19.9228 21.4682 19.8846C21.5618 19.8464 21.6469 19.7899 21.7184 19.7184C21.7899 19.6469 21.8464 19.5618 21.8846 19.4682C21.9228 19.3746 21.942 19.2743 21.941 19.1732C21.9399 19.0721 21.9187 18.9722 21.8786 18.8794C21.8385 18.7865 21.7803 18.7027 21.7073 18.6326L17.4947 14.42H19.84C19.9407 14.4214 20.0407 14.4028 20.1341 14.3652C20.2276 14.3277 20.3126 14.2719 20.3844 14.2012C20.4561 14.1305 20.513 14.0462 20.5519 13.9533C20.5908 13.8604 20.6108 13.7607 20.6108 13.66C20.6108 13.5593 20.5908 13.4595 20.5519 13.3666C20.513 13.2737 20.4561 13.1895 20.3844 13.1187C20.3126 13.048 20.2276 12.9923 20.1341 12.9547C20.0407 12.9172 19.9407 12.8986 19.84 12.9H14.9ZM25.16 12.9C25.0593 12.8986 24.9593 12.9172 24.8658 12.9547C24.7724 12.9923 24.6873 13.048 24.6156 13.1187C24.5439 13.1895 24.4869 13.2737 24.448 13.3666C24.4092 13.4595 24.3892 13.5593 24.3892 13.66C24.3892 13.7607 24.4092 13.8604 24.448 13.9533C24.4869 14.0462 24.5439 14.1305 24.6156 14.2012C24.6873 14.2719 24.7724 14.3277 24.8658 14.3652C24.9593 14.4028 25.0593 14.4214 25.16 14.42H27.4734L23.2904 18.6349C23.2178 18.7052 23.16 18.7893 23.1203 18.8823C23.0806 18.9753 23.0598 19.0752 23.0593 19.1763C23.0587 19.2774 23.0783 19.3776 23.1169 19.471C23.1555 19.5644 23.2123 19.6492 23.2841 19.7204C23.3559 19.7916 23.4411 19.8477 23.5349 19.8856C23.6286 19.9234 23.729 19.9421 23.83 19.9407C23.9311 19.9393 24.0309 19.9177 24.1235 19.8773C24.2162 19.8368 24.2998 19.7783 24.3695 19.7051L28.58 15.4628V17.84C28.5786 17.9407 28.5972 18.0407 28.6347 18.1341C28.6723 18.2276 28.728 18.3126 28.7987 18.3844C28.8694 18.4561 28.9537 18.513 29.0466 18.5519C29.1395 18.5908 29.2393 18.6108 29.34 18.6108C29.4407 18.6108 29.5404 18.5908 29.6333 18.5519C29.7262 18.513 29.8105 18.4561 29.8812 18.3844C29.9519 18.3126 30.0077 18.2276 30.0452 18.1341C30.0828 18.0407 30.1014 17.9407 30.1 17.84V12.9H25.16ZM21.1581 21.0626C20.9607 21.0677 20.7731 21.1494 20.6349 21.2904L16.42 25.4734V23.16C16.4214 23.0593 16.4028 22.9593 16.3652 22.8658C16.3277 22.7724 16.2719 22.6873 16.2012 22.6156C16.1305 22.5439 16.0462 22.4869 15.9533 22.448C15.8604 22.4092 15.7607 22.3892 15.66 22.3892C15.5593 22.3892 15.4595 22.4092 15.3666 22.448C15.2737 22.4869 15.1895 22.5439 15.1187 22.6156C15.048 22.6873 14.9923 22.7724 14.9547 22.8658C14.9172 22.9593 14.8986 23.0593 14.9 23.16V28.1H19.84C19.9407 28.1014 20.0407 28.0828 20.1341 28.0452C20.2276 28.0077 20.3126 27.9519 20.3844 27.8812C20.4561 27.8105 20.513 27.7262 20.5519 27.6333C20.5908 27.5404 20.6108 27.4407 20.6108 27.34C20.6108 27.2393 20.5908 27.1395 20.5519 27.0466C20.513 26.9537 20.4561 26.8694 20.3844 26.7987C20.3126 26.728 20.2276 26.6723 20.1341 26.6347C20.0407 26.5972 19.9407 26.5786 19.84 26.58H17.4628L21.7051 22.3695C21.8154 22.2632 21.8909 22.1261 21.9219 21.9761C21.9529 21.8261 21.9378 21.6702 21.8787 21.5289C21.8195 21.3877 21.7191 21.2675 21.5905 21.1843C21.4619 21.1011 21.3112 21.0586 21.1581 21.0626ZM23.8218 21.0626C23.6707 21.0627 23.523 21.108 23.3978 21.1925C23.2725 21.277 23.1752 21.3969 23.1184 21.537C23.0616 21.677 23.0478 21.8308 23.0789 21.9787C23.1099 22.1266 23.1843 22.2619 23.2926 22.3673L27.5053 26.58H25.16C25.0593 26.5786 24.9593 26.5972 24.8658 26.6347C24.7724 26.6723 24.6873 26.728 24.6156 26.7987C24.5439 26.8694 24.4869 26.9537 24.448 27.0466C24.4092 27.1395 24.3892 27.2393 24.3892 27.34C24.3892 27.4407 24.4092 27.5404 24.448 27.6333C24.4869 27.7262 24.5439 27.8105 24.6156 27.8812C24.6873 27.9519 24.7724 28.0077 24.8658 28.0452C24.9593 28.0828 25.0593 28.1014 25.16 28.1H30.1V23.16C30.1014 23.0593 30.0828 22.9593 30.0452 22.8658C30.0077 22.7724 29.9519 22.6873 29.8812 22.6156C29.8105 22.5439 29.7262 22.4869 29.6333 22.448C29.5404 22.4092 29.4407 22.3892 29.34 22.3892C29.2393 22.3892 29.1395 22.4092 29.0466 22.448C28.9537 22.4869 28.8694 22.5439 28.7987 22.6156C28.728 22.6873 28.6723 22.7724 28.6347 22.8658C28.5972 22.9593 28.5786 23.0593 28.58 23.16V25.5053L24.3673 21.2926C24.2964 21.2197 24.2116 21.1618 24.1179 21.1223C24.0242 21.0828 23.9235 21.0625 23.8218 21.0626Z" fill="white"/>
<defs>
<linearGradient id="paint0_linear_7614_3" x1="-2.81912e-07" y1="-5" x2="157.413" y2="7.4356" gradientUnits="userSpaceOnUse">
<stop stop-color="#F69020"/>
<stop offset="1" stop-color="#F69020" stop-opacity="0"/>
</linearGradient>
</defs>
</svg>
