<svg width="267" height="41" viewBox="0 0 267 41" fill="none" xmlns="http://www.w3.org/2000/svg">
<rect width="267" height="41" fill="url(#paint0_linear_7614_2)" fill-opacity="0.24"/>
<path d="M23.3006 12.1C19.5764 12.1 18.1934 14.9776 19.2581 17.4156C19.1252 17.5042 18.912 17.7815 18.9562 18.2687C19.0448 19.1547 19.4435 19.3663 19.665 19.4106C19.7536 20.2522 20.2868 21.2333 20.5969 21.3662C20.5969 21.9421 20.5887 22.4244 20.5444 23.0462C19.8652 24.8296 15.5241 24.4161 14.9662 27.6137C14.9416 27.7532 15.086 28.06 15.3731 28.06H29.64C30.0666 28.06 30.0584 27.745 30.0337 27.6006C29.4661 24.4161 25.1348 24.8279 24.4556 23.0462C24.4113 22.3801 24.4031 21.9421 24.4031 21.3662C24.7132 21.2333 25.207 20.2079 25.2956 19.4106C25.5171 19.4106 25.8715 19.1432 26.0044 18.2556C26.0487 17.7683 25.8666 17.4599 25.6894 17.4156C26.3981 16.5297 26.2702 12.9006 23.655 12.9006L23.3006 12.1ZM18.3656 14.2C15.5618 14.2476 14.333 16.4788 15.1762 18.3869C15.086 18.4311 14.9088 18.6658 14.9531 19.0694C15.0434 19.7879 15.3108 19.9619 15.4912 19.9619C15.5798 20.6345 15.9769 21.3892 16.2 21.5237C16.2 21.9716 16.2049 21.9585 16.1606 22.495C15.7964 23.6434 12 23.5581 12 26.38C12 26.38 12 26.8 12.42 26.8H14.3231C14.9646 24.9854 16.7086 24.2865 18.0244 23.7681C18.7495 23.4826 19.4927 23.1939 19.7175 22.8362C19.7421 22.4458 19.7552 22.1144 19.7569 21.7469C19.3582 21.2908 19.0612 20.5804 18.9169 19.975C18.5756 19.7223 18.2065 19.2367 18.1163 18.3344C18.0769 17.9061 18.1671 17.5501 18.3131 17.2712C17.9801 16.236 18.0014 15.1548 18.3656 14.2ZM27.96 14.2C27.558 14.2 27.0839 14.2328 26.6344 14.305C26.9707 15.291 26.9838 16.469 26.6869 17.3106C26.8181 17.5994 26.8788 17.9504 26.8444 18.3344L26.8312 18.3606V18.3869C26.7066 19.2121 26.403 19.7141 26.0437 19.9881C25.9076 20.5558 25.6303 21.2727 25.2431 21.7337C25.2448 22.0947 25.2579 22.4195 25.2825 22.8362C25.5073 23.1939 26.2521 23.4826 26.9756 23.7681C28.2898 24.2849 30.0337 24.9854 30.6769 26.8H32.58C33 26.8 33 26.3931 33 26.3931C33.0016 23.1447 29.4054 23.9141 28.8656 22.4293C28.8197 21.9339 28.8131 21.9798 28.8131 21.4844C29.0379 21.3498 29.4513 20.5935 29.4956 19.9619C29.6761 19.9619 29.9435 19.7765 30.0337 19.0562C30.078 18.6969 29.9452 18.4311 29.8106 18.3869C30.352 17.6666 30.2634 14.83 28.2356 14.83L27.96 14.2Z" fill="white"/>
<defs>
<linearGradient id="paint0_linear_7614_2" x1="-4.76395e-07" y1="-5" x2="262.981" y2="30.1079" gradientUnits="userSpaceOnUse">
<stop stop-color="#F69020"/>
<stop offset="1" stop-color="#F69020" stop-opacity="0"/>
</linearGradient>
</defs>
</svg>
