<svg width="134" height="41" viewBox="0 0 134 41" fill="none" xmlns="http://www.w3.org/2000/svg">
<rect width="134" height="41" fill="url(#paint0_linear_7614_4)" fill-opacity="0.24"/>
<path d="M22.0801 10.9713L13.1288 14.2394C12.9615 14.282 12.8401 14.4527 12.8401 14.62V25.6188L22.0801 22.3113V10.9713ZM22.9201 10.9713V22.3113L25.4401 23.1906V16.1294L29.2201 17.5206V24.5294L32.1601 25.5794V14.62C32.1601 14.4527 32.0387 14.282 31.8713 14.2394L22.9201 10.9713ZM19.5601 15.88V20.1194L15.7801 21.5894V17.3894L19.5601 15.88ZM22.5001 23.0594L13.1813 26.38L22.3688 30.1206C22.4115 30.1206 22.4558 30.16 22.5395 30.16C22.5821 30.16 22.6674 30.1633 22.7101 30.1206L31.8188 26.38L22.5001 23.0594Z" fill="white"/>
<defs>
<linearGradient id="paint0_linear_7614_4" x1="-2.3909e-07" y1="-5" x2="133.735" y2="3.96023" gradientUnits="userSpaceOnUse">
<stop stop-color="#F69020"/>
<stop offset="1" stop-color="#F69020" stop-opacity="0"/>
</linearGradient>
</defs>
</svg>
